<svg width="91" height="34" viewBox="0 0 75 12" fill="none" xmlns="http://www.w3.org/2000/svg">
<g clip-path="url(#clip0_14_292)">
<path d="M36.0586 10.301C37.4213 10.0094 38.784 9.2806 39.4653 7.67715H33.2284V6.12228H42.1383V6.85113H41.719C41.1949 9.32919 39.3081 11.8559 35.1152 11.953L34.2242 11.127C34.2242 11.127 33.0712 11.6129 32.9664 11.7101C30.0838 10.9326 28.4066 8.45458 28.4066 6.0251C28.3018 2.57525 31.132 0 34.6435 0C36.74 0 38.2075 0.583075 39.4653 1.65204L38.4171 2.96396C37.893 2.42948 36.5303 1.55487 34.6959 1.55487C32.1802 1.55487 30.0838 3.40127 30.0838 6.0251C30.0838 8.21163 31.8133 9.91227 33.805 10.3496L36.0586 10.301V10.301Z" fill="#AA88FF"/>
<path d="M6.44654 11.953C2.8826 11.953 0 9.28061 0 5.97652C0 2.62384 2.8826 0 6.44654 0C10.0629 0 12.8931 2.67243 12.8931 6.0251C12.8931 9.2806 10.0105 11.953 6.44654 11.953ZM6.44654 1.55487C4.50734 1.55487 2.98742 2.52666 2.25367 4.13011C1.99161 4.71319 1.83438 5.34485 1.83438 5.97652C1.83438 6.60818 1.99161 7.23984 2.25367 7.82292C3.03983 9.42637 4.55975 10.3982 6.44654 10.3982C8.49057 10.3982 10.0629 9.32919 10.7966 7.53138C11.0063 7.04549 11.1111 6.511 11.1111 5.97652C11.1111 3.59563 9.17191 1.55487 6.44654 1.55487V1.55487ZM20.5975 7.19125C20.2306 7.33702 19.8113 7.38561 19.392 7.38561L22.8512 11.6615H20.5975L16.5094 6.31664H16.457V11.6615H14.6751V0.194358H18.501C19.6541 0.194358 20.9119 0.388716 21.8029 1.16615C22.5891 1.89499 22.956 2.91537 22.956 3.88716C22.956 5.44203 22.2222 6.70536 20.5975 7.19125ZM18.3962 1.74922H16.5094V6.17087H17.7673C19.392 6.17087 21.174 5.73357 21.174 3.93575C21.174 2.42948 19.8637 1.74922 18.3962 1.74922V1.74922ZM24.6331 11.7101V0.194358H26.4675V11.7101H24.6331V11.7101ZM56.9706 11.7101V1.99217H56.9182L52.7254 11.7101H51.6247L47.4319 1.99217H47.3795V11.7101H45.5975V0.194358H48.4277L52.1488 8.98907L55.87 0.194358H58.7002V11.7101H56.9706V11.7101ZM60.7966 11.7101V0.194358H62.631V11.7101H60.7966V11.7101ZM73.4277 10.058C72.065 11.3214 70.4402 11.7101 68.6059 11.7101H64.6226V0.194358H68.6583C70.6499 0.194358 72.5367 0.777433 73.7421 2.3323C74.5283 3.35268 75 4.71319 75 6.0251C75 7.33702 74.4759 9.08625 73.4277 10.058V10.058ZM72.8512 4.22729C72.1174 2.57525 70.5975 1.74922 68.6583 1.74922H66.457V10.2038H68.6059C71.4361 10.2038 73.1656 8.69753 73.1656 6.0251C73.218 5.39344 73.0608 4.81037 72.8512 4.22729ZM41.2998 0.194358L32.8092 11.6615C33.4382 11.8559 34.1195 11.953 34.8532 11.953H35.1153L41.6667 2.38089H41.7191V11.7101H43.5535V0.194358H41.2998Z" fill="black"/>
</g>
<defs>
<clipPath id="clip0_14_292">
<rect width="75" height="11.953" fill="white"/>
</clipPath>
</defs>
</svg>
